<?xml version="1.0" encoding="utf-8"?>
<!-- Generator: Adobe Illustrator 24.1.2, SVG Export Plug-In . SVG Version: 6.00 Build 0)  -->
<svg version="1.1" id="Layer_1" xmlns="http://www.w3.org/2000/svg" xmlns:xlink="http://www.w3.org/1999/xlink" x="0px" y="0px"
	 viewBox="0 0 400 225" style="enable-background:new 0 0 400 225;" xml:space="preserve">
<style type="text/css">
	.st0{fill:#F05B41;}
	.st1{fill:#414042;}
</style>
<g>
	<g>
		<polygon class="st0" points="90.86,111.98 81.06,91 75.56,91 75.56,134 78,134 		"/>
		<polygon class="st0" points="90.79,91 97.5,105.73 97.68,105.73 101.3,98.75 111.17,98.75 103.92,111.98 111.43,124.29 
			101.43,124.29 97.63,117.52 97.54,117.52 87.97,134 118.57,134 118.57,91 		"/>
	</g>
	<path class="st0" d="M149.06,101.15h-9.43v23.14h-9.08v-23.14h-9.43v-7.42h27.94V101.15z"/>
	<path class="st0" d="M151.16,98.75h8.78v1.7c1.92-1.05,4.19-1.96,5.98-1.96h2.62v7.73h-4.06c-1.22,0-2.58,0.31-4.54,1.05v17.03
		h-8.78V98.75z"/>
	<path class="st0" d="M183.77,98.49c6.07,0,9.12,1.53,9.08,7.99v17.81h-8.78v-1.62c-1.92,1-4.19,1.88-5.98,1.88h-1
		c-5.85-0.04-8.78,0.44-8.78-7.99v-2.23c0-6.5,2.93-6.81,8.78-6.81h1.35c2.53,0,3.54,0.35,5.63,0.87v-1.44
		c-0.09-1.7-0.7-2.18-2.53-2.18h-10.61l-0.04-5.5C170.89,99.27,176.48,98.49,183.77,98.49z M179.76,112.76h-0.96
		c-1.22,0-1.75,0.39-1.75,1.66v2.53c0,1.13,0.57,1.61,1.75,1.61h0.74c1.22,0,2.58-0.39,4.54-0.7v-4.67
		C182.11,112.94,180.98,112.76,179.76,112.76z"/>
	<path class="st0" d="M217.74,123.55c0,0-5.41,0.96-12.66,0.96c-6.07,0-9.08-1.7-9.08-8.16v-9.74c0-6.42,3.01-8.12,9.08-8.12
		c7.29,0,12.66,0.57,12.66,0.57v6.33h-11.22c-1.14,0-1.75,0.52-1.75,1.66v8.91c0,1.09,0.61,1.66,1.75,1.66h11.18L217.74,123.55z"/>
	<path class="st0" d="M242.89,123.55c0,0-6.29,0.96-13.53,0.96c-6.07,0-9.08-1.57-9.08-8.03v-9.6c0-4.41,3.1-8.16,9.21-8.16h5.94
		c6.07,0,9.08,3.75,9.08,8.16v7.2c0,0.52,0,0.61-0.44,0.61h-15.02v1.48c0,1.31,0.48,1.66,1.75,1.66h12.22L242.89,123.55z
		 M236.38,107.39c0-1.83-0.79-2.4-2.36-2.4h-2.53c-1.57,0-2.45,0.52-2.45,2.4v2.45l7.33-0.13V107.39z"/>
	<path class="st1" d="M250.35,120.45c1.18,0,2.1,0.87,2.1,2.05c0,1.18-0.92,2.1-2.1,2.1c-1.18,0-2.1-0.92-2.1-2.1
		C248.26,121.32,249.18,120.45,250.35,120.45z"/>
	<path class="st1" d="M268.18,99.66c5.11-0.09,7.68,1,7.68,6.72v17.9h-3.19v-2.27c-1.92,0.96-4.93,2.45-7.6,2.45h-2.1
		c-5.02,0-7.55-0.44-7.55-6.77v-2.05c0-5.76,2.53-6.42,7.55-6.42h3.62c2.88,0,4.1,0.26,6.07,0.61v-2.88c0-4.41-1-4.76-5.11-4.76
		l-9.69,0.13v-2.31C257.87,100.01,261.71,99.66,268.18,99.66z M266.91,111.58h-3.54c-3.67,0-4.89,0.52-4.89,4.5v1.31
		c0,3.71,0.83,4.45,4.89,4.45h2.23c2.31,0,5.11-1.35,7.07-2.05v-7.9C270.71,111.71,269.22,111.58,266.91,111.58z"/>
	<path class="st1" d="M283.32,131.27h-3.19V99.84h3.19v2.23c1.92-0.96,4.93-2.4,7.6-2.4h1.75c5.02,0,7.6,1,7.6,6.72v11.31
		c0,5.72-2.58,6.77-7.6,6.77h-1.75c-2.66,0-5.68-1.48-7.6-2.45V131.27z M283.32,119.57c1.96,0.74,4.76,2.1,7.07,2.1h1.79
		c3.54,0,4.89-0.79,4.89-4.5v-10.22c0-3.75-1.35-4.5-4.89-4.5h-1.79c-2.31,0-5.11,1.35-7.07,2.05V119.57z"/>
	<path class="st1" d="M307.5,131.27h-3.19V99.84h3.19v2.23c1.92-0.96,4.93-2.4,7.6-2.4h1.75c5.02,0,7.6,1,7.6,6.72v11.31
		c0,5.72-2.58,6.77-7.6,6.77h-1.75c-2.66,0-5.68-1.48-7.6-2.45V131.27z M307.5,119.57c1.96,0.74,4.76,2.1,7.07,2.1h1.79
		c3.54,0,4.89-0.79,4.89-4.5v-10.22c0-3.75-1.35-4.5-4.89-4.5h-1.79c-2.31,0-5.11,1.35-7.07,2.05V119.57z"/>
</g>
</svg>
